<svg xmlns="http://www.w3.org/2000/svg" viewBox="0 0 1120 330" width="1120" height="330" xmlns:c2pa="http://c2pa.org/manifest"><metadata><c2pa:manifest>AAAWgmp1bWIAAAAeanVtZGMycGEAEQAQgAAAqgA4m3EDYzJwYQAAABZcanVtYgAAAEdqdW1kYzJtYQARABCAAACqADibcQN1cm46YzJwYTo5MzlkMjdiNi1iMTRiLTQwNzgtOGI4NC1lMDM3ODBjNjdlZmYAAAADl2p1bWIAAAApanVtZGMyYXMAEQAQgAAAqgA4m3EDYzJwYS5hc3NlcnRpb25zAAAAALxqdW1iAAAARGp1bWRjYm9yABEAEIAAAKoAOJtxE2MycGEuaW5ncmVkaWVudC52MwAAAAAYYzJzaNoL4OyU2Ga57vfJpA2KKK8AAABwY2JvcqNpZGM6Zm9ybWF0bWltYWdlL3N2Zyt4bWxqaW5zdGFuY2VJRHgseG1wOmlpZDpjZWFkMzUyNC1hMmZkLTQxZTAtYTBmYy1lNjg3ZmRhMTU1ZmNscmVsYXRpb25zaGlwaHBhcmVudE9mAAAB4mp1bWIAAABBanVtZGNib3IAEQAQgAAAqgA4m3ETYzJwYS5hY3Rpb25zLnYyAAAAABhjMnNo1VxZEcHr9jYT3u7jqgUD2gAAAZljYm9yomdhY3Rpb25zgqJmYWN0aW9ua2MycGEub3BlbmVkanBhcmFtZXRlcnOha2luZ3JlZGllbnRzgaJjdXJseC1zZWxmI2p1bWJmPWMycGEuYXNzZXJ0aW9ucy9jMnBhLmluZ3JlZGllbnQudjNkaGFzaFggfN6LFGexHdif7n+OtPTAbzSij32U8/iPz+lwIDBstxKkZmFjdGlvbngdY29tLmFudGhyb3BpYy5jbGF1ZGUucHJvdmlkZWRqcGFyYW1ldGVyc6F4H2NvbS5hbnRocm9waWMub3JpZ2luLWNvbmZpZGVuY2VndW5rbm93bmtkZXNjcmlwdGlvbnhmQ2xhdWRlIHByb3ZpZGVkIHRoaXMgZmlsZSBhdCB0aGUgcmVxdWVzdCBvZiBhIHVzZXIgYW5kIG1heSBoYXZlIGNyZWF0ZWQgb3IgbW9kaWZpZWQgdGhlIGZpbGUgY29udGVudHMubXNvZnR3YXJlQWdlbnShZG5hbWVmQ2xhdWRlcmFsbEFjdGlvbnNJbmNsdWRlZPUAAADIanVtYgAAAEBqdW1kY2JvcgARABCAAACqADibcRNjMnBhLmhhc2guZGF0YQAAAAAYYzJzaFCgi6xRiuOB0rNgy1Y6Ro0AAACAY2JvcqVjYWxnZnNoYTI1NmNwYWRNAAAAAAAAAAAAAAAAAGRoYXNoWCCLrAWp0Nk8Ydi0zbvd1NfbPG6w8xUs56FMcS39iGbPmWRuYW1lbmp1bWJmIG1hbmlmZXN0amV4Y2x1c2lvbnOBomVzdGFydBiYZmxlbmd0aBkeBAAAAj5qdW1iAAAAJ2p1bWRjMmNsABEAEIAAAKoAOJtxA2MycGEuY2xhaW0udjIAAAACD2Nib3KlY2FsZ2ZzaGEyNTZpc2lnbmF0dXJleE1zZWxmI2p1bWJmPS9jMnBhL3VybjpjMnBhOjkzOWQyN2I2LWIxNGItNDA3OC04Yjg0LWUwMzc4MGM2N2VmZi9jMnBhLnNpZ25hdHVyZWppbnN0YW5jZUlEeCx4bXA6aWlkOjRiMTc0NjdhLTU0ODktNGM1OS1hOGZjLTE4MmI2MzBkMWY2YXJjcmVhdGVkX2Fzc2VydGlvbnODomN1cmx4LXNlbGYjanVtYmY9YzJwYS5hc3NlcnRpb25zL2MycGEuaW5ncmVkaWVudC52M2RoYXNoWCB83osUZ7Ed2J/uf4609MBvNKKPfZTz+I/P6XAgMGy3EqJjdXJseCpzZWxmI2p1bWJmPWMycGEuYXNzZXJ0aW9ucy9jMnBhLmFjdGlvbnMudjJkaGFzaFggZQn23kFpKTQOc0hpzoHh0l1qiWNJhhKPk5k3yH7j26SiY3VybHgpc2VsZiNqdW1iZj1jMnBhLmFzc2VydGlvbnMvYzJwYS5oYXNoLmRhdGFkaGFzaFggSn/8QgczLh44qRRSu3LTdNR3xMpZNGUSsxxKP5Bdeg10Y2xhaW1fZ2VuZXJhdG9yX2luZm+jZG5hbWVvQW50aHJvcGljIEZpbGVzZ3ZlcnNpb25lMS4wLjBrc3BlY1ZlcnNpb25lMi40LjAAABA4anVtYgAAAChqdW1kYzJjcwARABCAAACqADibcQNjMnBhLnNpZ25hdHVyZQAAABAIY2JvctKEWQISogEmGCFZAgowggIGMIIBjaADAgECAhRA5aAK7sI50L64g/oGQgU9Z1UTADAKBggqhkjOPQQDAzBJMRcwFQYDVQQKEw5BbnRocm9waWMsIFBCQzEuMCwGA1UEAxMlQW50aHJvcGljIENvbnRlbnQgQ3JlZGVudGlhbHMgUm9vdCBDQTAeFw0yNjA4MDcxODQzNTZaFw0yODA4MDYxOTQzNTZaMEQxFzAVBgNVBAoTDkFudGhyb3BpYywgUEJDMSkwJwYDVQQDEyBBbnRocm9waWMgQ2xhdWRlIENvbnRlbnQgU2lnbmluZzBZMBMGByqGSM49AgEGCCqGSM49AwEHA0IABJh6CmvLUBgFFNU0vUKlOVtE6djd17L5SuwX0LemFisBM3dkd/3cyjxFA3Qo5S46fX0/ihY0VZ7mfb9KF703t5OjWDBWMA4GA1UdDwEB/wQEAwIHgDAVBgNVHSUEDjAMBgorBgEEAYPoXgIBMAwGA1UdEwEB/wQCMAAwHwYDVR0jBBgwFoAUzlHiBIFOZFsj+OPEz5o+nMHXXMIwCgYIKoZIzj0EAwMDZwAwZAIwMXMdFJ4BetLLVY7ORuE9noqbbAZOZn/aArXyTwFAZfKrPzxF2vPoJNf1+UCdg1XGAjBwX1zd9WGqYkqmL5SFqw1QySjr1zJfpJM9+1rdDwSPLMOPOjKuiXjoU/pUUeG9RwmhY3BhZFkNngAAAAAAAAAAAAAAAAAAAAAAAAAAAAAAAAAAAAAAAAAAAAAAAAAAAAAAAAAAAAAAAAAAAAAAAAAAAAAAAAAAAAAAAAAAAAAAAAAAAAAAAAAAAAAAAAAAAAAAAAAAAAAAAAAAAAAAAAAAAAAAAAAAAAAAAAAAAAAAAAAAAAAAAAAAAAAAAAAAAAAAAAAAAAAAAAAAAAAAAAAAAAAAAAAAAAAAAAAAAAAAAAAAAAAAAAAAAAAAAAAAAAAAAAAAAAAAAAAAAAAAAAAAAAAAAAAAAAAAAAAAAAAAAAAAAAAAAAAAAAAAAAAAAAAAAAAAAAAAAAAAAAAAAAAAAAAAAAAAAAAAAAAAAAAAAAAAAAAAAAAAAAAAAAAAAAAAAAAAAAAAAAAAAAAAAAAAAAAAAAAAAAAAAAAAAAAAAAAAAAAAAAAAAAAAAAAAAAAAAAAAAAAAAAAAAAAAAAAAAAAAAAAAAAAAAAAAAAAAAAAAAAAAAAAAAAAAAAAAAAAAAAAAAAAAAAAAAAAAAAAAAAAAAAAAAAAAAAAAAAAAAAAAAAAAAAAAAAAAAAAAAAAAAAAAAAAAAAAAAAAAAAAAAAAAAAAAAAAAAAAAAAAAAAAAAAAAAAAAAAAAAAAAAAAAAAAAAAAAAAAAAAAAAAAAAAAAAAAAAAAAAAAAAAAAAAAAAAAAAAAAAAAAAAAAAAAAAAAAAAAAAAAAAAAAAAAAAAAAAAAAAAAAAAAAAAAAAAAAAAAAAAAAAAAAAAAAAAAAAAAAAAAAAAAAAAAAAAAAAAAAAAAAAAAAAAAAAAAAAAAAAAAAAAAAAAAAAAAAAAAAAAAAAAAAAAAAAAAAAAAAAAAAAAAAAAAAAAAAAAAAAAAAAAAAAAAAAAAAAAAAAAAAAAAAAAAAAAAAAAAAAAAAAAAAAAAAAAAAAAAAAAAAAAAAAAAAAAAAAAAAAAAAAAAAAAAAAAAAAAAAAAAAAAAAAAAAAAAAAAAAAAAAAAAAAAAAAAAAAAAAAAAAAAAAAAAAAAAAAAAAAAAAAAAAAAAAAAAAAAAAAAAAAAAAAAAAAAAAAAAAAAAAAAAAAAAAAAAAAAAAAAAAAAAAAAAAAAAAAAAAAAAAAAAAAAAAAAAAAAAAAAAAAAAAAAAAAAAAAAAAAAAAAAAAAAAAAAAAAAAAAAAAAAAAAAAAAAAAAAAAAAAAAAAAAAAAAAAAAAAAAAAAAAAAAAAAAAAAAAAAAAAAAAAAAAAAAAAAAAAAAAAAAAAAAAAAAAAAAAAAAAAAAAAAAAAAAAAAAAAAAAAAAAAAAAAAAAAAAAAAAAAAAAAAAAAAAAAAAAAAAAAAAAAAAAAAAAAAAAAAAAAAAAAAAAAAAAAAAAAAAAAAAAAAAAAAAAAAAAAAAAAAAAAAAAAAAAAAAAAAAAAAAAAAAAAAAAAAAAAAAAAAAAAAAAAAAAAAAAAAAAAAAAAAAAAAAAAAAAAAAAAAAAAAAAAAAAAAAAAAAAAAAAAAAAAAAAAAAAAAAAAAAAAAAAAAAAAAAAAAAAAAAAAAAAAAAAAAAAAAAAAAAAAAAAAAAAAAAAAAAAAAAAAAAAAAAAAAAAAAAAAAAAAAAAAAAAAAAAAAAAAAAAAAAAAAAAAAAAAAAAAAAAAAAAAAAAAAAAAAAAAAAAAAAAAAAAAAAAAAAAAAAAAAAAAAAAAAAAAAAAAAAAAAAAAAAAAAAAAAAAAAAAAAAAAAAAAAAAAAAAAAAAAAAAAAAAAAAAAAAAAAAAAAAAAAAAAAAAAAAAAAAAAAAAAAAAAAAAAAAAAAAAAAAAAAAAAAAAAAAAAAAAAAAAAAAAAAAAAAAAAAAAAAAAAAAAAAAAAAAAAAAAAAAAAAAAAAAAAAAAAAAAAAAAAAAAAAAAAAAAAAAAAAAAAAAAAAAAAAAAAAAAAAAAAAAAAAAAAAAAAAAAAAAAAAAAAAAAAAAAAAAAAAAAAAAAAAAAAAAAAAAAAAAAAAAAAAAAAAAAAAAAAAAAAAAAAAAAAAAAAAAAAAAAAAAAAAAAAAAAAAAAAAAAAAAAAAAAAAAAAAAAAAAAAAAAAAAAAAAAAAAAAAAAAAAAAAAAAAAAAAAAAAAAAAAAAAAAAAAAAAAAAAAAAAAAAAAAAAAAAAAAAAAAAAAAAAAAAAAAAAAAAAAAAAAAAAAAAAAAAAAAAAAAAAAAAAAAAAAAAAAAAAAAAAAAAAAAAAAAAAAAAAAAAAAAAAAAAAAAAAAAAAAAAAAAAAAAAAAAAAAAAAAAAAAAAAAAAAAAAAAAAAAAAAAAAAAAAAAAAAAAAAAAAAAAAAAAAAAAAAAAAAAAAAAAAAAAAAAAAAAAAAAAAAAAAAAAAAAAAAAAAAAAAAAAAAAAAAAAAAAAAAAAAAAAAAAAAAAAAAAAAAAAAAAAAAAAAAAAAAAAAAAAAAAAAAAAAAAAAAAAAAAAAAAAAAAAAAAAAAAAAAAAAAAAAAAAAAAAAAAAAAAAAAAAAAAAAAAAAAAAAAAAAAAAAAAAAAAAAAAAAAAAAAAAAAAAAAAAAAAAAAAAAAAAAAAAAAAAAAAAAAAAAAAAAAAAAAAAAAAAAAAAAAAAAAAAAAAAAAAAAAAAAAAAAAAAAAAAAAAAAAAAAAAAAAAAAAAAAAAAAAAAAAAAAAAAAAAAAAAAAAAAAAAAAAAAAAAAAAAAAAAAAAAAAAAAAAAAAAAAAAAAAAAAAAAAAAAAAAAAAAAAAAAAAAAAAAAAAAAAAAAAAAAAAAAAAAAAAAAAAAAAAAAAAAAAAAAAAAAAAAAAAAAAAAAAAAAAAAAAAAAAAAAAAAAAAAAAAAAAAAAAAAAAAAAAAAAAAAAAAAAAAAAAAAAAAAAAAAAAAAAAAAAAAAAAAAAAAAAAAAAAAAAAAAAAAAAAAAAAAAAAAAAAAAAAAAAAAAAAAAAAAAAAAAAAAAAAAAAAAAAAAAAAAAAAAAAAAAAAAAAAAAAAAAAAAAAAAAAAAAAAAAAAAAAAAAAAAAAAAAAAAAAAAAAAAAAAAAAAAAAAAAAAAAAAAAAAAAAAAAAAAAAAAAAAAAAAAAAAAAAAAAAAAAAAAAAAAAAAAAAAAAAAAAAAAAAAAAAAAAAAAAAAAAAAAAAAAAAAAAAAAAAAAAAAAAAAAAAAAAAAAAAAAAAAAAAAAAAAAAAAAAAAAAAAAAAAAAAAAAAAAAAAAAAAAAAAAAAAAAAAAAAAAAAAAAAAAAAAAAAAAAAAAAAAAAAAAAAAAAAAAAAAAAAAAAAAAAAAAAAAAAAAAAAAAAAAAAAAAAAAAAAAAAAAAAAAAAAAAAAAAAAAAAAAAAAAAAAAAAAAAAAAAAAAAAAAAAAAAAAAAAAAAAAAAAAAAAAAAAAAAAAAAAAAAAAAAAAAAAAAAAAAAAAAAAAAAAAAAAAAAAAAAAAAAAAAAAAAAAAAAAAAAAAAAAAAAAAAAAAAAAAAAAAAAAAAAAAAAAAAAAAAAAAAAAAAAAAAAAAAAAAAAAAAAAAAAAAAAAAAAAAAAAAAAAAAAAAAAAAAAAAAAAAAAAAAAAAAAAAAAAAAAAAAAAAAAAAAAAAAAAAAAAAAAAAAAAAAAAAAAAAAAAAAAAAAAAAAAAAAAAAAAAAAAAAAAAAAAAAAAAAAAAAAAAAAAAAAAAAAAAAAAAAAAAAAAAAAAAAAAAAAAAAAAAAAAAAAAAAAAAAAAAAAAAAAAAAAAAAAAAAAAAAAAAAAAAAAAAAAAAAAAAAAAAAAAAAAAAAAAAAAAAAAAAAAAAAAAAAAAAAAAAAAAAAAAAAAAAAAAAAAAAAAAAAAAAAAAAAAAAAAAAAAAAAAAAAAAAAAAAAAAAAAAAAAAAAAAAAAAAAAAAAAAAAAAAAAAAAAAAAAAAAAAAAAAAAAAAAAAAAAAAAAAAAAAAAAAAAAAAAAAAAAAAAAAAAAAAAAAAAAAAAAAAAAAAAAAAAAAAAAAAAAAAAAAAAAAAAAAAAAAAAAAAAAAAAAAAAAAAAAAAAAAAAAAAAAAAAAAAAAAAAAAAAAAAAAAAAAAAAAAAAAAAAAAAAAAAAAAAAAAAAAAAAAAAAAAAAAAAAAAAAAAAAAAAAAAAAAAAAAAAAAAAAAAAAAAAAAAAAAAAAAAAAAAAAAAAAAAAAAAAAAAAAAAAAAAAAAAAAAAAAAAAAAAAAAAAAAAAAAAAAAAAAAAAAAAAAAAAAAAAAAAAAAAAAAAAAAAAAAAAAAAAAAAAAAAAAAAAAAAAAAAAAAAAAAAAAAAAAAAAAAAAAAAAAAAAAAAAAAAAAAAAAAAAAAAAAAAAAAAAAAAAAAAAAAAAAAAAAAAAAAAAAAAAAAAAAAAAAAAAAAAAAAAAAAAAAAAAAAAAAAAAAAAAAAAAAAAAAAAAAAAAAAAAAAAAAAAAAAAAAAAAAAAAAAAAAAAAAAAAAAAAAAAAAAAAAAAAAAAAAAAAAAAAAAAAAAAAAAAAAAAAAAAAAAAAAAAAAAAAAAAAAAAAAAAAAAAAAAAAAAAAAAAAAAAAAAAAAAAAAAAAAAAAAAAAAAAAAAAAAAAAAAAAAAAAAAAAAAAAAAAAAAAAAAAAAAAAAAAAAAAAAAAAAAAAAAAAAAAAAAAAAAAAAAAAAAAAAAAAAAAAAAAAAAAAAAAAAAAAAAAAAAAAAAAAAAAAAAAAAAAAAAAAAPZYQNRbFaYeGK0V1sru7jm6FVnesQ52f/Nc5i7zahHb5G1xwznOwdupTeptnkiw2ZozMUD8az9ucKp0N2ma5QPq55Q=</c2pa:manifest></metadata>
  <title>Tally, the Nimble tutor: ready, thinking, almost, happy, squint</title>

  <defs>
    

    <g id="tally-ready">
      <g class="t-fingers">
        <g class="t-finger t-pinky" transform="translate(100,140) rotate(-44)"><rect x="-13" y="-82" width="26" height="104" rx="13" fill="#fbd0a4" stroke="#e3ab76" stroke-width="4"></rect></g>
        <g class="t-finger t-ring" transform="translate(100,140) rotate(-17)"><rect x="-13" y="-100" width="26" height="122" rx="13" fill="#fbd0a4" stroke="#e3ab76" stroke-width="4"></rect></g>
        <g class="t-finger t-middle" transform="translate(100,140) rotate(8)"><rect x="-13" y="-108" width="26" height="130" rx="13" fill="#fbd0a4" stroke="#e3ab76" stroke-width="4"></rect></g>
        <g class="t-finger t-index" transform="translate(100,140) rotate(33)"><rect x="-12" y="-94" width="24" height="116" rx="12" fill="#fbd0a4" stroke="#e3ab76" stroke-width="4"></rect></g>
      </g>
      <g class="t-finger t-thumb" transform="translate(52,156) rotate(-122)"><rect x="-13" y="-58" width="26" height="76" rx="13" fill="#fbd0a4" stroke="#e3ab76" stroke-width="4"></rect></g>
      <rect class="t-palm" x="48" y="82" width="104" height="108" rx="38" fill="#fbd0a4" stroke="#e3ab76" stroke-width="4"></rect>
      <g class="t-eyes">
        <path class="t-brow" d="M 66 100 Q 78 92 90 99" fill="none" stroke="#35406b" stroke-width="7" stroke-linecap="round"></path>
        <path class="t-brow" d="M 110 99 Q 122 92 134 100" fill="none" stroke="#35406b" stroke-width="7" stroke-linecap="round"></path>
        <circle class="t-eye" cx="78" cy="120" r="14" fill="#ffffff" stroke="#e3ab76" stroke-width="3"></circle>
        <circle class="t-eye" cx="122" cy="120" r="14" fill="#ffffff" stroke="#e3ab76" stroke-width="3"></circle>
        <circle class="t-pupil" cx="78" cy="121" r="7" fill="#35406b"></circle>
        <circle class="t-pupil" cx="122" cy="121" r="7" fill="#35406b"></circle>
      </g>
      <g class="t-mouth-group"><path class="t-mouth-fill" d="M 86 146 Q 100 166 114 146 Z" fill="#ef5a4f"></path></g>
    </g>

    <g id="tally-thinking">
      <g class="t-fingers">
        <g class="t-finger t-pinky" transform="translate(100,140) rotate(-46)"><rect x="-13" y="-68" width="26" height="90" rx="13" fill="#fbd0a4" stroke="#e3ab76" stroke-width="4"></rect></g>
        <g class="t-finger t-ring" transform="translate(100,140) rotate(-20)"><rect x="-13" y="-82" width="26" height="104" rx="13" fill="#fbd0a4" stroke="#e3ab76" stroke-width="4"></rect></g>
        <g class="t-finger t-middle" transform="translate(100,140) rotate(4)"><rect x="-13" y="-90" width="26" height="112" rx="13" fill="#fbd0a4" stroke="#e3ab76" stroke-width="4"></rect></g>
        <g class="t-finger t-index" transform="translate(100,140) rotate(38)"><rect x="-12" y="-126" width="24" height="148" rx="12" fill="#fbd0a4" stroke="#e3ab76" stroke-width="4"></rect></g>
      </g>
      <g class="t-finger t-thumb" transform="translate(52,156) rotate(-122)"><rect x="-13" y="-58" width="26" height="76" rx="13" fill="#fbd0a4" stroke="#e3ab76" stroke-width="4"></rect></g>
      <rect class="t-palm" x="48" y="82" width="104" height="108" rx="38" fill="#fbd0a4" stroke="#e3ab76" stroke-width="4"></rect>
      <g class="t-eyes">
        <path class="t-brow" d="M 66 100 Q 78 92 90 99" fill="none" stroke="#35406b" stroke-width="7" stroke-linecap="round"></path>
        <path class="t-brow" d="M 110 99 Q 122 92 134 100" fill="none" stroke="#35406b" stroke-width="7" stroke-linecap="round"></path>
        <circle class="t-eye" cx="78" cy="120" r="14" fill="#ffffff" stroke="#e3ab76" stroke-width="3"></circle>
        <circle class="t-eye" cx="122" cy="120" r="14" fill="#ffffff" stroke="#e3ab76" stroke-width="3"></circle>
        <circle class="t-pupil" cx="82" cy="115" r="7" fill="#35406b"></circle>
        <circle class="t-pupil" cx="126" cy="115" r="7" fill="#35406b"></circle>
      </g>
      <g class="t-mouth-group"><path class="t-mouth" d="M 88 152 H 112" fill="none" stroke="#35406b" stroke-width="6" stroke-linecap="round"></path></g>
    </g>

    <g id="tally-almost">
      <g class="t-fingers">
        <g class="t-finger t-pinky" transform="translate(100,140) rotate(-40)"><rect x="-13" y="-72" width="26" height="94" rx="13" fill="#fbd0a4" stroke="#e3ab76" stroke-width="4"></rect></g>
        <g class="t-finger t-ring" transform="translate(100,140) rotate(-15)"><rect x="-13" y="-86" width="26" height="108" rx="13" fill="#fbd0a4" stroke="#e3ab76" stroke-width="4"></rect></g>
        <g class="t-finger t-middle" transform="translate(100,140) rotate(8)"><rect x="-13" y="-92" width="26" height="114" rx="13" fill="#fbd0a4" stroke="#e3ab76" stroke-width="4"></rect></g>
        <g class="t-finger t-index" transform="translate(100,140) rotate(30)"><rect x="-12" y="-80" width="24" height="102" rx="12" fill="#fbd0a4" stroke="#e3ab76" stroke-width="4"></rect></g>
      </g>
      <g class="t-finger t-thumb" transform="translate(52,156) rotate(-108)"><rect x="-13" y="-54" width="26" height="72" rx="13" fill="#fbd0a4" stroke="#e3ab76" stroke-width="4"></rect></g>
      <rect class="t-palm" x="48" y="82" width="104" height="108" rx="38" fill="#fbd0a4" stroke="#e3ab76" stroke-width="4"></rect>
      <g class="t-eyes">
        <path class="t-brow" d="M 66 100 Q 78 92 90 99" fill="none" stroke="#35406b" stroke-width="7" stroke-linecap="round"></path>
        <path class="t-brow" d="M 110 99 Q 122 92 134 100" fill="none" stroke="#35406b" stroke-width="7" stroke-linecap="round"></path>
        <ellipse class="t-eye" cx="78" cy="121" rx="14" ry="10" fill="#ffffff" stroke="#e3ab76" stroke-width="3"></ellipse>
        <ellipse class="t-eye" cx="122" cy="121" rx="14" ry="10" fill="#ffffff" stroke="#e3ab76" stroke-width="3"></ellipse>
        <circle class="t-pupil" cx="78" cy="123" r="6" fill="#35406b"></circle>
        <circle class="t-pupil" cx="122" cy="123" r="6" fill="#35406b"></circle>
      </g>
      <g class="t-mouth-group"><path class="t-mouth" d="M 86 156 Q 100 144 114 156" fill="none" stroke="#35406b" stroke-width="6" stroke-linecap="round"></path></g>
    </g>

    <g id="tally-happy">
      <g class="t-fingers">
        <g class="t-finger t-pinky" transform="translate(100,140) rotate(-52)"><rect x="-13" y="-94" width="26" height="116" rx="13" fill="#fbd0a4" stroke="#e3ab76" stroke-width="4"></rect></g>
        <g class="t-finger t-ring" transform="translate(100,140) rotate(-20)"><rect x="-13" y="-114" width="26" height="136" rx="13" fill="#fbd0a4" stroke="#e3ab76" stroke-width="4"></rect></g>
        <g class="t-finger t-middle" transform="translate(100,140) rotate(10)"><rect x="-13" y="-122" width="26" height="144" rx="13" fill="#fbd0a4" stroke="#e3ab76" stroke-width="4"></rect></g>
        <g class="t-finger t-index" transform="translate(100,140) rotate(40)"><rect x="-12" y="-106" width="24" height="128" rx="12" fill="#fbd0a4" stroke="#e3ab76" stroke-width="4"></rect></g>
      </g>
      <g class="t-finger t-thumb" transform="translate(52,156) rotate(-128)"><rect x="-13" y="-62" width="26" height="80" rx="13" fill="#fbd0a4" stroke="#e3ab76" stroke-width="4"></rect></g>
      <rect class="t-palm" x="48" y="82" width="104" height="108" rx="38" fill="#fbd0a4" stroke="#e3ab76" stroke-width="4"></rect>
      <g class="t-eyes">
        <path class="t-eyeline" d="M 64 124 Q 78 106 92 124" fill="none" stroke="#35406b" stroke-width="8" stroke-linecap="round"></path>
        <path class="t-eyeline" d="M 108 124 Q 122 106 136 124" fill="none" stroke="#35406b" stroke-width="8" stroke-linecap="round"></path>
      </g>
      <g class="t-mouth-group"><path class="t-mouth-fill" d="M 80 142 Q 100 174 120 142 Z" fill="#ef5a4f"></path></g>
    </g>

    <g id="tally-squint">
      <g class="t-fingers">
        <g class="t-finger t-pinky" transform="translate(100,140) rotate(-44)"><rect x="-13" y="-82" width="26" height="104" rx="13" fill="#fbd0a4" stroke="#e3ab76" stroke-width="4"></rect></g>
        <g class="t-finger t-ring" transform="translate(100,140) rotate(-17)"><rect x="-13" y="-98" width="26" height="120" rx="13" fill="#fbd0a4" stroke="#e3ab76" stroke-width="4"></rect></g>
        <g class="t-finger t-middle" transform="translate(100,140) rotate(6)"><rect x="-13" y="-104" width="26" height="126" rx="13" fill="#fbd0a4" stroke="#e3ab76" stroke-width="4"></rect></g>
        <g class="t-finger t-index" transform="translate(100,140) rotate(20)"><rect x="-12" y="-76" width="24" height="98" rx="12" fill="#fbd0a4" stroke="#e3ab76" stroke-width="4"></rect></g>
      </g>
      <g class="t-finger t-thumb" transform="translate(52,156) rotate(-122)"><rect x="-13" y="-58" width="26" height="76" rx="13" fill="#fbd0a4" stroke="#e3ab76" stroke-width="4"></rect></g>
      <rect class="t-palm" x="48" y="82" width="104" height="108" rx="38" fill="#fbd0a4" stroke="#e3ab76" stroke-width="4"></rect>
      <g class="t-eyes">
        <path class="t-brow" d="M 66 100 Q 78 92 90 99" fill="none" stroke="#35406b" stroke-width="7" stroke-linecap="round"></path>
        <path class="t-brow" d="M 110 99 Q 122 92 134 100" fill="none" stroke="#35406b" stroke-width="7" stroke-linecap="round"></path>
        <path class="t-eyeline" d="M 64 118 Q 78 130 92 118" fill="none" stroke="#35406b" stroke-width="8" stroke-linecap="round"></path>
        <path class="t-eyeline" d="M 108 118 Q 122 130 136 118" fill="none" stroke="#35406b" stroke-width="8" stroke-linecap="round"></path>
      </g>
      <g class="t-mouth-group"><path class="t-mouth" d="M 86 152 Q 100 146 114 154" fill="none" stroke="#35406b" stroke-width="6" stroke-linecap="round"></path></g>
    </g>

    <g id="tally-hands">
      <g transform="translate(-8,54) rotate(-7 100 140) scale(0.62)">
      <g class="t-fingers">
        <g class="t-finger t-pinky" transform="translate(100,140) rotate(-52)"><rect x="-13" y="-94" width="26" height="116" rx="13" fill="#fbd0a4" stroke="#e3ab76" stroke-width="4"></rect></g>
        <g class="t-finger t-ring" transform="translate(100,140) rotate(-20)"><rect x="-13" y="-114" width="26" height="136" rx="13" fill="#fbd0a4" stroke="#e3ab76" stroke-width="4"></rect></g>
        <g class="t-finger t-middle" transform="translate(100,140) rotate(10)"><rect x="-13" y="-122" width="26" height="144" rx="13" fill="#fbd0a4" stroke="#e3ab76" stroke-width="4"></rect></g>
        <g class="t-finger t-index" transform="translate(100,140) rotate(40)"><rect x="-12" y="-106" width="24" height="128" rx="12" fill="#fbd0a4" stroke="#e3ab76" stroke-width="4"></rect></g>
      </g>
      <g class="t-finger t-thumb" transform="translate(52,156) rotate(-122)"><rect x="-13" y="-58" width="26" height="76" rx="13" fill="#fbd0a4" stroke="#e3ab76" stroke-width="4"></rect></g>
      <rect class="t-palm" x="48" y="82" width="104" height="108" rx="38" fill="#fbd0a4" stroke="#e3ab76" stroke-width="4"></rect>
      <g class="t-eyes">
        <path class="t-eyeline" d="M 64 124 Q 78 106 92 124" fill="none" stroke="#35406b" stroke-width="8" stroke-linecap="round"></path>
        <path class="t-eyeline" d="M 108 124 Q 122 106 136 124" fill="none" stroke="#35406b" stroke-width="8" stroke-linecap="round"></path>
      </g>
      <g class="t-mouth-group"><path class="t-mouth-fill" d="M 80 142 Q 100 174 120 142 Z" fill="#ef5a4f"></path></g>
      </g>
      <g class="t-other-hand" transform="translate(208,54) rotate(7 100 140) scale(-0.62,0.62)">
      <g class="t-fingers">
        <g class="t-finger t-pinky" transform="translate(100,140) rotate(-52)"><rect x="-13" y="-94" width="26" height="116" rx="13" fill="#fbd0a4" stroke="#e3ab76" stroke-width="4"></rect></g>
        <g class="t-finger t-ring" transform="translate(100,140) rotate(-20)"><rect x="-13" y="-114" width="26" height="136" rx="13" fill="#fbd0a4" stroke="#e3ab76" stroke-width="4"></rect></g>
        <g class="t-finger t-middle" transform="translate(100,140) rotate(10)"><rect x="-13" y="-122" width="26" height="144" rx="13" fill="#fbd0a4" stroke="#e3ab76" stroke-width="4"></rect></g>
        <g class="t-finger t-index" transform="translate(100,140) rotate(40)"><rect x="-12" y="-106" width="24" height="128" rx="12" fill="#fbd0a4" stroke="#e3ab76" stroke-width="4"></rect></g>
      </g>
      <g class="t-finger t-thumb" transform="translate(52,156) rotate(-122)"><rect x="-13" y="-58" width="26" height="76" rx="13" fill="#fbd0a4" stroke="#e3ab76" stroke-width="4"></rect></g>
      <rect class="t-palm" x="48" y="82" width="104" height="108" rx="38" fill="#fbd0a4" stroke="#e3ab76" stroke-width="4"></rect>
      </g>
    </g>

    <g id="acc-glasses" class="t-glasses">
      <circle cx="78" cy="120" r="21" fill="none" stroke="#35406b" stroke-width="5"></circle>
      <circle cx="122" cy="120" r="21" fill="none" stroke="#35406b" stroke-width="5"></circle>
      <line x1="99" y1="120" x2="101" y2="120" stroke="#35406b" stroke-width="5" stroke-linecap="round"></line>
      <line x1="57" y1="116" x2="44" y2="110" stroke="#35406b" stroke-width="5" stroke-linecap="round"></line>
      <line x1="143" y1="116" x2="156" y2="110" stroke="#35406b" stroke-width="5" stroke-linecap="round"></line>
    </g>

    <g id="acc-hat" class="t-hat" transform="rotate(-8 100 40)">
      <path class="hat-cone" d="M 100 -26 L 138 42 L 62 42 Z" fill="#36a9f5"></path>
      <rect class="hat-brim" x="50" y="38" width="100" height="16" rx="8" fill="#1f8ad4"></rect>
    </g>

    <g id="acc-headband" class="t-headband">
      <rect x="44" y="94" width="112" height="18" rx="9" fill="#ef5a4f"></rect>
      <circle cx="44" cy="103" r="11" fill="#ef5a4f"></circle>
    </g>

    <g id="acc-crown" class="t-crown">
      <path d="M 50 104 L 44 58 L 74 82 L 100 50 L 126 82 L 156 58 L 150 104 Z" fill="#f8c62c" stroke="#dda80e" stroke-width="4" stroke-linejoin="round"></path>
      <circle cx="100" cy="68" r="7" fill="#ef5a4f"></circle>
    </g>

    <g id="acc-cape" class="t-cape" data-layer="back">
      <path d="M 54 94 Q 6 196 30 216 L 170 216 Q 194 196 146 94 Z" fill="#8b6ee0"></path>
    </g>
  </defs>

  
  <rect x="0" y="0" width="1120" height="330" fill="#ffffff"></rect>
  <use href="#tally-ready" x="10" y="30"></use>
  <use href="#tally-thinking" x="230" y="30"></use>
  <use href="#tally-almost" x="450" y="30"></use>
  <use href="#tally-happy" x="670" y="30"></use>
  <use href="#tally-squint" x="890" y="30"></use>
  <g fill="#5b6488" font-family="Nunito, system-ui, sans-serif" font-size="20" font-weight="800" text-anchor="middle">
    <text x="112" y="300">ready</text>
    <text x="332" y="300">thinking</text>
    <text x="552" y="300">almost</text>
    <text x="772" y="300">happy</text>
    <text x="992" y="300">squint</text>
  </g>
</svg>